<?xml version="1.0" standalone="no"?>
<!DOCTYPE svg PUBLIC "-//W3C//DTD SVG 20010904//EN"
 "http://www.w3.org/TR/2001/REC-SVG-20010904/DTD/svg10.dtd">
<svg version="1.0" xmlns="http://www.w3.org/2000/svg"
 width="116.000000pt" height="116.000000pt" viewBox="0 0 116.000000 116.000000"
 preserveAspectRatio="xMidYMid meet">
<metadata>
Created by potrace 1.14, written by Peter Selinger 2001-2017
</metadata>
<g transform="translate(0.000000,116.000000) scale(0.100000,-0.100000)"
fill="#000000" stroke="none">
<path d="M463 1017 c-21 -4 -45 -10 -53 -14 -8 -3 -21 -7 -28 -9 -8 -1 -21 -9
-30 -17 -10 -8 -22 -13 -28 -10 -6 2 -25 -11 -41 -30 -16 -18 -35 -31 -43 -29
-9 3 -11 -1 -7 -12 4 -9 1 -16 -5 -16 -14 0 -84 -81 -80 -93 2 -6 -6 -20 -18
-32 -11 -12 -17 -25 -13 -28 3 -4 2 -7 -4 -7 -6 0 -14 -15 -18 -32 -4 -18 -10
-40 -12 -48 -11 -35 -13 -210 -2 -210 6 0 9 -6 6 -14 -3 -7 3 -27 14 -45 10
-17 16 -31 13 -31 -9 0 117 -124 140 -137 12 -7 32 -18 46 -25 14 -7 28 -17
31 -22 4 -5 14 -6 22 -3 8 3 20 0 26 -6 6 -6 28 -12 48 -14 105 -9 169 -9 179
-1 7 5 16 8 20 7 18 -4 84 13 84 22 0 5 5 9 11 9 51 0 209 129 209 171 0 25
-30 59 -53 59 -26 0 -56 -17 -109 -64 -72 -64 -75 -66 -107 -66 -16 0 -32 -4
-35 -9 -6 -9 -115 -9 -131 0 -5 4 -25 10 -42 14 -18 3 -33 11 -33 16 0 5 -9 9
-20 9 -11 0 -20 4 -20 8 0 5 -10 14 -22 21 -26 14 -84 88 -80 102 1 5 -3 9 -9
9 -6 0 -9 7 -5 15 3 8 -2 19 -12 24 -10 6 -12 11 -4 11 9 0 10 6 4 18 -11 22
-8 144 4 163 5 8 9 17 9 21 0 3 10 18 22 31 12 14 19 28 16 30 -9 9 51 69 97
96 51 29 53 30 132 37 47 5 60 2 75 -13 46 -46 32 -95 -34 -117 -23 -8 -44
-12 -47 -9 -14 14 -124 -61 -114 -77 2 -3 -6 -15 -17 -27 -39 -41 -15 -160 42
-212 54 -48 153 -61 213 -27 42 24 60 41 60 56 0 6 7 13 15 16 20 8 19 51 -2
78 -19 23 -39 23 -89 1 -34 -16 -71 -13 -90 7 -13 15 -31 67 -18 55 4 -4 13 7
18 25 8 22 18 33 31 34 11 0 32 6 48 12 15 7 38 14 50 16 12 2 35 9 50 15 45
18 75 13 108 -16 34 -31 52 -65 53 -103 2 -49 23 -70 70 -70 41 0 74 19 59 33
-3 4 -1 7 5 7 8 0 12 22 12 64 0 36 5 68 10 71 6 4 8 11 5 16 -4 5 -1 9 4 9 6
0 11 7 11 15 0 8 4 15 10 15 5 0 7 7 4 15 -4 8 -2 15 3 15 6 0 10 14 11 32 1
47 -42 87 -88 83 -19 -1 -43 -6 -53 -10 -10 -4 -24 -2 -32 5 -8 7 -15 9 -15 4
-1 -5 -9 1 -20 14 -11 13 -24 21 -30 17 -5 -3 -10 -2 -10 4 0 11 -80 57 -92
53 -5 -1 -8 3 -8 9 0 6 -9 9 -20 6 -10 -3 -21 0 -22 5 -4 12 -181 16 -235 5z"/>
</g>
</svg>
